<svg xmlns="http://www.w3.org/2000/svg" xmlns:xlink="http://www.w3.org/1999/xlink" width="100.0" height="100.0" viewBox="114.19196324360331 22.536878772512832 0.1626567121903406 0.12581714672124988" preserveAspectRatio="xMinYMin meet"><g transform="matrix(1,0,0,-1,0,45.19957469174692)"><path fill-rule="evenodd" fill="#66cc99" stroke="#555555" stroke-width="0.0032531342438068124" opacity="0.6" d="M 114.22772343824352,22.54290309518655 L 114.22642663888006,22.543690181751796 L 114.22622633866524,22.544072018178383 L 114.22617826610823,22.544167978396228 L 114.22566844592741,22.545900502257584 L 114.2261220341243,22.546605774293386 L 114.22595667832812,22.548599517632788 L 114.22592361962481,22.548799479929194 L 114.22531972990055,22.54944600048469 L 114.22490612032577,22.549763673620838 L 114.22469480442496,22.54995650202277 L 114.22456360330818,22.550141389863754 L 114.22432522180235,22.550705167468166 L 114.22425511411252,22.550793107430298 L 114.22414895576411,22.550846022182792 L 114.22351502005641,22.550864527247658 L 114.22330370459206,22.550873358988238 L 114.22297619240274,22.551202071531723 L 114.22271278572745,22.55133684735895 L 114.22244136864185,22.55140161946413 L 114.22180737818735,22.551639070815657 L 114.22145481808487,22.551815756392628 L 114.22119138373354,22.552150503206775 L 114.22108918682797,22.552718370608357 L 114.2210180608386,22.5529352917117 L 114.22091087872491,22.55313418235 L 114.22066848086578,22.553337952655212 L 114.22018168213653,22.55363949372398 L 114.21982609216012,22.55387615213528 L 114.21961773849375,22.554106942724072 L 114.21912289299043,22.55464244034521 L 114.21843068118942,22.555615705325017 L 114.21815320143043,22.555834419899124 L 114.21784968416124,22.555905118490085 L 114.21733981885724,22.555849619629893 L 114.2170703633958,22.55573235974675 L 114.21701929671703,22.55539533571209 L 114.21678390712417,22.555122120078778 L 114.21622394379223,22.55492556341167 L 114.21585129729574,22.554784188252366 L 114.21546060779562,22.554738781981772 L 114.21494869585588,22.55468724175569 L 114.21373349474088,22.554569926268332 L 114.21342993510451,22.554571588082155 L 114.21306525548076,22.554624174050385 L 114.2127787149078,22.554719841555098 L 114.21263944932761,22.55479567670711 L 114.2121535030161,22.55529007837104 L 114.21144209728855,22.5561131809995 L 114.21104330639439,22.556505676669364 L 114.21078279357968,22.556657353207306 L 114.21045314528604,22.55678994591034 L 114.21010546383931,22.556833520832754 L 114.20963654329236,22.556818948036003 L 114.20841312161318,22.55657944054769 L 114.20774477806992,22.556462597979394 L 114.20748424882396,22.556445263839876 L 114.20726680404142,22.556453981615142 L 114.20595708456764,22.55666724109857 L 114.20453309108406,22.556567323738093 L 114.20310102397228,22.556429345180575 L 114.20240651636529,22.556352367663216 L 114.20214594484048,22.556361994640188 L 114.20192044586058,22.556415666748244 L 114.20180819370864,22.556493498858657 L 114.20166085545426,22.556702269230005 L 114.20142630769084,22.557161891912678 L 114.20126994471946,22.557420643448154 L 114.20114867023061,22.557503460120024 L 114.20094020157435,22.557581149538343 L 114.20070567961318,22.557563807641266 L 114.20032383021393,22.55747925285093 L 114.19913517425057,22.557019520113403 L 114.19866611641073,22.556834827551114 L 114.19834538666484,22.55675934689796 L 114.19817098816033,22.55672808375707 L 114.19798756627702,22.556725803741635 L 114.19828215407688,22.55813613580337 L 114.19825207847667,22.558239081299604 L 114.19824104640622,22.55834505553231 L 114.19825006381264,22.55839706487359 L 114.19828814234965,22.55853711101514 L 114.19831219106875,22.558639138972396 L 114.19833624308441,22.55868917133077 L 114.19839537318167,22.558776253871052 L 114.19847254350915,22.558879362359413 L 114.19850761966002,22.55894540998434 L 114.19854670724985,22.558975466736218 L 114.19864292414636,22.55902660823536 L 114.19877121285096,22.559096796396734 L 114.1990578576535,22.559234217103555 L 114.19926832879597,22.559350523472165 L 114.19933347445351,22.55938561816752 L 114.19938659190088,22.55943369363163 L 114.19946576552731,22.55952580422593 L 114.19962812072612,22.55972003006188 L 114.19979648919981,22.55990826470378 L 114.1998977098609,22.56002940473367 L 114.20003601209346,22.56017659723706 L 114.20010115492812,22.56023568863523 L 114.20025849803878,22.56040090700023 L 114.20042185295692,22.560582132202686 L 114.20048799718455,22.56064422418589 L 114.20069043959256,22.56080750738182 L 114.20092795651973,22.561010837313386 L 114.20117749858834,22.56121518324771 L 114.20129675709066,22.561312348065552 L 114.20133684266206,22.56136440166797 L 114.20142503047397,22.56148351903486 L 114.20157835675845,22.56168672294429 L 114.20174470910717,22.561921942149898 L 114.20187298074238,22.56209611130764 L 114.20197820347065,22.562235250072668 L 114.20205536654444,22.56233835154794 L 114.20211448870954,22.562459425405684 L 114.20216459207153,22.562563487782803 L 114.20222972609727,22.562702568415524 L 114.20225477586251,22.562783596903042 L 114.20228583687559,22.56289463123745 L 114.20233894410268,22.56303769409289 L 114.2023830325354,22.563164745447896 L 114.20241208778225,22.563295774949722 L 114.20244514623549,22.563513802170956 L 114.20245816784686,22.563621810845397 L 114.20246618079143,22.56369381566639 L 114.20245114258552,22.563777786560234 L 114.2024150496949,22.56399771495194 L 114.202393996213,22.564114674181155 L 114.20236993556654,22.56424062826305 L 114.20229375397525,22.564473498021435 L 114.202202534868,22.564775339650787 L 114.20217747482221,22.564855296361788 L 114.20211232574867,22.564951194152492 L 114.20202311981723,22.565108051626307 L 114.20182867108143,22.565435741494635 L 114.20174447550926,22.56559260546906 L 114.20158410373179,22.565871347696664 L 114.20146783281861,22.566088158959772 L 114.20133251818672,22.566322940484355 L 114.20122226084818,22.566523761177788 L 114.20107792259037,22.56680052459719 L 114.20092756974125,22.567087277665628 L 114.2008543954262,22.567264153663974 L 114.20080327461979,22.567371068538254 L 114.20069100990094,22.567592882578477 L 114.20062184510545,22.56775376548401 L 114.2005687188614,22.56787067608845 L 114.2005236118268,22.567966600444276 L 114.20044141963515,22.568094467018497 L 114.20036824914818,22.56819634924888 L 114.20020586924294,22.568439085767338 L 114.2000765665798,22.56862687599599 L 114.19992420974239,22.56884262880133 L 114.1998590552665,22.568961520286038 L 114.19976984586211,22.569088375057895 L 114.19964354858932,22.569275168387705 L 114.19954832405351,22.56941801208992 L 114.19948918256426,22.569536911906486 L 114.19941300108357,22.56967578413016 L 114.19923056504054,22.570021476180166 L 114.19915638761067,22.57016035087368 L 114.19897695734446,22.570504046359734 L 114.19889075015823,22.570671899465232 L 114.1987784736677,22.57099069772681 L 114.19871130714753,22.571196575306104 L 114.19863712211068,22.5714394383385 L 114.19858097937141,22.57166433036285 L 114.19854989666125,22.571846264662646 L 114.19854687971284,22.572004243937165 L 114.19854887984276,22.57207423980631 L 114.1985659152147,22.572131259805246 L 114.19886656133801,22.57277464855806 L 114.19893772030036,22.57282675055438 L 114.1992935175715,22.57301826589781 L 114.19967436894596,22.573198816776856 L 114.19991891297565,22.573325167607766 L 114.20016445789071,22.573448518807997 L 114.20043505419325,22.573621900257756 L 114.20058037292674,22.573726103214945 L 114.20073070299127,22.573819314152818 L 114.20094316784886,22.573960610331152 L 114.20108647831532,22.574093805501303 L 114.20119170584437,22.574192948335874 L 114.2013791095817,22.574381200787993 L 114.20165570491565,22.574640573697952 L 114.2018130425332,22.574789784771976 L 114.2018821907941,22.574853877492703 L 114.20199844099727,22.574942035174345 L 114.20223795573634,22.575117359638455 L 114.2023491945986,22.575193510394985 L 114.20244339567957,22.57527263625489 L 114.20251955876832,22.575325739006075 L 114.20258269370703,22.5753718238481 L 114.2026287921376,22.575405885687353 L 114.20281318915164,22.575481139018486 L 114.20296451441605,22.57554034654272 L 114.20313387858684,22.575592579615236 L 114.2031679517841,22.5756026264667 L 114.20322708078432,22.575587711160818 L 114.20542372647924,22.576230665374847 L 114.20551391265666,22.576281781283953 L 114.20556401530642,22.57632084443108 L 114.20567123806457,22.576351985001953 L 114.20584660182669,22.57640021453325 L 114.20609511595667,22.57646553871824 L 114.20627147958642,22.576513767568304 L 114.20646187159278,22.576558014519726 L 114.2065961470895,22.576594187553358 L 114.20673543212291,22.576634366234423 L 114.20685066820435,22.57665651486438 L 114.20698394095517,22.576678686677077 L 114.20714827692665,22.576699898528407 L 114.2073035938223,22.576718098269836 L 114.2074388696526,22.576727272419326 L 114.20754408284631,22.57674940589083 L 114.20765530907771,22.57675354874465 L 114.2079759593699,22.57676195903057 L 114.20816935060292,22.576758206052634 L 114.20833368319326,22.576738416933853 L 114.20870442962527,22.576706888481123 L 114.20881765674726,22.576697031743144 L 114.20905412833753,22.57669932728801 L 114.20913328578614,22.576700425828612 L 114.20983165773481,22.576845272774857 L 114.2102434575354,22.576960762311842 L 114.21061717704389,22.577091199508818 L 114.21084761656395,22.577201463791177 L 114.21230535999003,22.577849104373936 L 114.21239653015964,22.577875206437803 L 114.21246565701796,22.57792628021761 L 114.21256784390017,22.578007388395562 L 114.21265299698774,22.57811247416221 L 114.21271310554663,22.578176535679393 L 114.21279124428247,22.578294611635506 L 114.21281127952162,22.578329630554354 L 114.21308176393883,22.578644902103346 L 114.21328512385416,22.578924100025123 L 114.21356962633507,22.57929437690528 L 114.21363574195448,22.579392439525996 L 114.21369885373932,22.579461501913244 L 114.21387817544324,22.579581687003937 L 114.21405649422455,22.579701869985016 L 114.2141847228102,22.579788000981676 L 114.21441212754415,22.579929233318236 L 114.21461949485926,22.580061443377737 L 114.21474371317575,22.58015656676113 L 114.21488095471352,22.58024670419784 L 114.21496209507018,22.58033378135298 L 114.21505725838333,22.580451869760825 L 114.21510934666502,22.580531916277803 L 114.21514440335618,22.58062794275146 L 114.21514940717928,22.58070893888822 L 114.215142386182,22.580841916298848 L 114.2151083138856,22.58101985972863 L 114.21504419032829,22.581155775788282 L 114.21490792412229,22.581494591180316 L 114.21482275436206,22.581754469900773 L 114.21481473592513,22.581817454039175 L 114.21475261317255,22.581987367612747 L 114.21471153245903,22.582091311344836 L 114.21464340351234,22.582184227060647 L 114.21457026273734,22.582318132455338 L 114.21444903344577,22.58246998335321 L 114.21432880477339,22.582632833581158 L 114.21427971186358,22.582689773395845 L 114.21424163709995,22.582775721809462 L 114.21414044034127,22.582969588463595 L 114.21408633574462,22.583061518387368 L 114.21406529274063,22.583133486881437 L 114.21406028117467,22.58317147694202 L 114.21405727479359,22.583185472004814 L 114.21404324058643,22.58332044081301 L 114.21402920713463,22.583443410997216 L 114.21399011236474,22.5838103249414 L 114.21398109097586,22.58388730595646 L 114.21389888489038,22.584763111814066 L 114.21432066934183,22.584535601640717 L 114.21464626192918,22.584498959504916 L 114.21598359297445,22.58536827341403 L 114.21655254710178,22.586033779465275 L 114.21742802320631,22.586581594650262 L 114.21964167649774,22.58728762640868 L 114.21978790141188,22.58749473533025 L 114.21991505175144,22.588378742899682 L 114.22006226876287,22.58871283539655 L 114.22215235544351,22.592006241860158 L 114.22263805840413,22.592630563749296 L 114.22408715914936,22.593604589183585 L 114.22425637212974,22.5941466482588 L 114.22421626205153,22.59496051080299 L 114.22453164480804,22.596156591929503 L 114.22470787218312,22.596585667014498 L 114.22551395145587,22.59768911030127 L 114.22568416443717,22.598107175709547 L 114.22568115762019,22.598148167998414 L 114.22566612689143,22.598300136615048 L 114.22567811668077,22.598727087019224 L 114.22568712254427,22.598834078838635 L 114.22569713120498,22.598919074364275 L 114.2258682171456,22.601342860802767 L 114.22605946158033,22.601688947010206 L 114.22670131917447,22.602099331888407 L 114.22814915911572,22.603586065840165 L 114.22832432895453,22.604511042607246 L 114.22988025672845,22.60526885500533 L 114.23065211673088,22.606602085734423 L 114.2305579118657,22.608036823727808 L 114.2300031130126,22.609936234977532 L 114.22984189403131,22.610244097837114 L 114.22926614225372,22.61073269224901 L 114.22958047673178,22.6116907290716 L 114.2299088512728,22.612228833623515 L 114.2313785430251,22.613561416749235 L 114.23140256975937,22.613586425110753 L 114.23151469444473,22.61369946441124 L 114.23208230008198,22.614552612208936 L 114.23212734903136,22.614597626943922 L 114.23216639132447,22.614637639495605 L 114.232220450124,22.61468765762177 L 114.23226750117476,22.614731673233077 L 114.23330660610037,22.61569899739859 L 114.23600325018771,22.618501599948416 L 114.23865270489053,22.61892629821814 L 114.23939530272666,22.619647348915304 L 114.23994271196766,22.620444329184 L 114.24035702541447,22.620858337274644 L 114.24208630140379,22.62187841602152 L 114.24256564201416,22.622019441043975 L 114.24309399763419,22.62231243569556 L 114.24419569139621,22.623085363116765 L 114.24455691805356,22.623177356093827 L 114.24609584516607,22.623212330204723 L 114.24692230820378,22.623136295003555 L 114.2481449318324,22.62316617160405 L 114.24907537649416,22.623001071036416 L 114.25000277594998,22.622959917562156 L 114.25100518779799,22.622593768621453 L 114.25277978894418,22.622349344658424 L 114.25506239023494,22.62172467659883 L 114.25815771096985,22.62329305972828 L 114.26048963645172,22.625409448436972 L 114.26101244814612,22.628118675592102 L 114.26150635880484,22.629122200773324 L 114.2613622385635,22.631153932836128 L 114.26128723556985,22.631265958850573 L 114.26039021648633,22.6320673489463 L 114.25901414126785,22.6330319364363 L 114.25827503574692,22.634080127552263 L 114.25636775413648,22.635314790156897 L 114.25504946376267,22.63630814267748 L 114.25420925373098,22.63674736852657 L 114.25387915587392,22.637036428567853 L 114.25395412808302,22.63776626877667 L 114.25414113212564,22.638413084972495 L 114.254101059867,22.63940291467562 L 114.25423402564857,22.64043767473837 L 114.25355575714404,22.642029602801372 L 114.25314654359423,22.643658421736472 L 114.2537606645351,22.644321097568668 L 114.25450677654378,22.645346641335202 L 114.25470878383132,22.645925455523713 L 114.25470771629152,22.646987248835234 L 114.2554607210941,22.649264512868733 L 114.25551368227974,22.650028340014707 L 114.25657475747026,22.651498602972723 L 114.25741884979256,22.65163719302526 L 114.25779287518245,22.65179698314652 L 114.25864889169881,22.652481418932947 L 114.25949786454561,22.65338478665437 L 114.26138675509938,22.6545284598255 L 114.26271658419354,22.65546741991656 L 114.26439929426978,22.656240097883753 L 114.26496316138437,22.656671596560365 L 114.2661969226177,22.65611877027175 L 114.26785452930477,22.65506863940093 L 114.26859232955644,22.654461133919757 L 114.26944505950706,22.65397448217281 L 114.26965206701657,22.652640567111696 L 114.2701229462023,22.651685331312574 L 114.27038091592424,22.650541322834293 L 114.27088676608314,22.649611035265277 L 114.27197634487109,22.648656176860307 L 114.27291592639574,22.64815734055205 L 114.27413634607599,22.64734324372292 L 114.27453013760996,22.64723684882739 L 114.27532472671312,22.6466071181394 L 114.27559958848124,22.64624688839794 L 114.27606033288826,22.64592644256764 L 114.27615028210319,22.64586435465156 L 114.27617926574455,22.645843326467126 L 114.27617827022537,22.645782339428923 L 114.27617827047916,22.64577834020574 L 114.27618426897276,22.64574434012942 L 114.27621625252145,22.645695314004413 L 114.27622224948446,22.645685309259825 L 114.2765480784709,22.645207036976572 L 114.27657706120844,22.645194006870742 L 114.27668399650781,22.64515789324973 L 114.27673096791257,22.6451428430722 L 114.2768938689176,22.64507867084032 L 114.277070761061,22.644998484916524 L 114.27783128511511,22.64465567418987 L 114.27886462296227,22.643942591877536 L 114.27984092963797,22.643822433328044 L 114.27984592603408,22.64382142740154 L 114.27992687101549,22.643750341802548 L 114.28000381607279,22.643721252865976 L 114.28105604422264,22.643343015479367 L 114.28107603866465,22.643187020127264 L 114.2810570583656,22.64310805914807 L 114.28101110034923,22.643006136508383 L 114.28089122858744,22.642440395084066 L 114.28088523604711,22.642395411168337 L 114.28082128850772,22.64234150163264 L 114.28081729651839,22.64226352146734 L 114.2807484445503,22.640761891876576 L 114.28075644244532,22.640698893732466 L 114.2807474540709,22.640623919092935 L 114.28073646594945,22.640568943183723 L 114.28072151330078,22.64000306815016 L 114.28074849665255,22.63994104602264 L 114.28081345392259,22.63983198511463 L 114.28104329467548,22.639555748018633 L 114.28146497966888,22.639339254691716 L 114.28184070220355,22.6390208341945 L 114.28225542423156,22.638142463016983 L 114.28228840190748,22.638072433287594 L 114.28236934291728,22.637964348363287 L 114.2823773413534,22.637886352411332 L 114.28239033260392,22.63785734091427 L 114.2825961916976,22.637422153442678 L 114.28262117452063,22.637369130633505 L 114.28263316668513,22.637337120885746 L 114.28265215314849,22.63730410218865 L 114.2826781353581,22.63724707876422 L 114.28292696265638,22.636720849632066 L 114.2830099046414,22.63654577273678 L 114.28329370656878,22.635914513779817 L 114.28374536138743,22.63530102506456 L 114.28420398262352,22.635022460192776 L 114.28495831935496,22.63498044307439 L 114.28557578610142,22.634594662817673 L 114.28559277129918,22.63458364128297 L 114.28563273777748,22.634536594400554 L 114.28568869065384,22.63447252836468 L 114.28570567655696,22.63444950894608 L 114.28574264863572,22.634355474589217 L 114.28574364810017,22.63434947428466 L 114.2857396552574,22.634294489765406 L 114.28573166569801,22.634245509710286 L 114.28570069871807,22.634172565883446 L 114.28569969995068,22.634167568172 L 114.28566773537939,22.634070630023963 L 114.28565375046132,22.634034655912256 L 114.28563576982573,22.63398868913587 L 114.28558282675957,22.633853786816605 L 114.28409938529872,22.630116476911027 L 114.28352591091074,22.62960133423859 L 114.28273859227266,22.62926843070571 L 114.28243385748004,22.629034868673163 L 114.2820922567552,22.62711264353628 L 114.28324652232988,22.623697716151938 L 114.2842986312057,22.623512341173456 L 114.28517090169319,22.622812269625886 L 114.28563551603425,22.622247722148373 L 114.28601317433872,22.62215921129909 L 114.28661160451935,22.622331342337255 L 114.28675046231339,22.62250511712831 L 114.28682633299165,22.623408858864714 L 114.28701214255791,22.623623559039366 L 114.28922792886374,22.6241002652397 L 114.28978835436187,22.624112431151925 L 114.29010404444718,22.623845004083936 L 114.29078845117338,22.621885299380548 L 114.29099124863458,22.62168802426194 L 114.29169551418778,22.62136100209151 L 114.29210206995117,22.62139936933871 L 114.2929910002007,22.622801754151563 L 114.29369016115928,22.62365051247157 L 114.29383897313626,22.6239552258563 L 114.29380999761707,22.624087249536878 L 114.29801759683893,22.630707264421538 L 114.29885352293772,22.631302758128257 L 114.29873262311078,22.6320968205914 L 114.29915006974082,22.632593028549273 L 114.2999739835853,22.633313501735884 L 114.30184861010295,22.632636398934448 L 114.30199941135841,22.632659132981978 L 114.30355540833483,22.631769568305586 L 114.30531907895583,22.630898592182906 L 114.30571965434882,22.628952216510218 L 114.30583051360425,22.62877104921883 L 114.30648065021613,22.628244971242395 L 114.30761909403198,22.627781990748566 L 114.30870860154634,22.62712111799369 L 114.31086051834849,22.627231136777777 L 114.31205379329094,22.627165931137473 L 114.31354858816692,22.627448088122847 L 114.31367539507578,22.627550832527774 L 114.31405776371787,22.6286159300555 L 114.31445017475815,22.62876416632368 L 114.31482561766698,22.628786455411568 L 114.3159998929312,22.62846529403696 L 114.3166100037949,22.628126197695934 L 114.31719016719249,22.627628183566046 L 114.31788221055416,22.62634508957284 L 114.31892467491146,22.625814196347687 L 114.31976341933478,22.625640626987607 L 114.32065506373046,22.62573290938641 L 114.32354368275809,22.625627405517143 L 114.3245770757964,22.62616533783223 L 114.3252879372056,22.627052827058026 L 114.32695828888092,22.628741346221936 L 114.33032419802754,22.62863696772108 L 114.33075157719081,22.62827622211908 L 114.33314307858191,22.626948950376907 L 114.33439028015498,22.626096766290726 L 114.3348206625459,22.62580201564296 L 114.33553067838012,22.624829863205075 L 114.33564454919126,22.624233753045846 L 114.3360320277703,22.623496160492223 L 114.33639752367796,22.623012566925038 L 114.33738612755496,22.62232086487391 L 114.33818603720745,22.621269576492736 L 114.33835881369865,22.62087032734622 L 114.33834884799548,22.620559396574627 L 114.33796740585434,22.62044411121402 L 114.3377117882064,22.620248610426625 L 114.33705979083628,22.61937394813593 L 114.33707877462227,22.619195942201188 L 114.33746825400796,22.618489342295966 L 114.33785279150352,22.61701387567679 L 114.33772503382134,22.616118251791764 L 114.33467881321339,22.611115650787617 L 114.33452007701264,22.610662015205158 L 114.33377422688378,22.609973510474827 L 114.33305139033445,22.608605068456413 L 114.33290073001491,22.606809616873278 L 114.3327739574915,22.606211942309404 L 114.33284886438032,22.605919844463763 L 114.33304059465169,22.605665522058842 L 114.33413300897901,22.6050615672439 L 114.33426980279813,22.605115304398467 L 114.33813915531579,22.604882199046553 L 114.33929451373062,22.604603139894472 L 114.3395281789731,22.604620714776978 L 114.33978979641525,22.604774220314127 L 114.33998449271411,22.60519380867294 L 114.34003042428441,22.605243718723358 L 114.34012328705138,22.60532853927828 L 114.34063354791795,22.605593584454258 L 114.34207551200876,22.6058229813217 L 114.34226724349423,22.605854637298016 L 114.34344560147292,22.606112526001464 L 114.34352848860229,22.606102382438287 L 114.34360738175235,22.60608524698783 L 114.34363734117338,22.606079195510382 L 114.34365931139902,22.606075157710965 L 114.3437981232495,22.606052918588475 L 114.34480577595467,22.605751212670054 L 114.34554381408608,22.605312005702874 L 114.34544002777606,22.60414235279498 L 114.3453821567334,22.6033385673164 L 114.34537816457548,22.603299579739165 L 114.34535720250005,22.60314563771029 L 114.34530729412948,22.602758778532134 L 114.3452933233573,22.602594825819036 L 114.34529132788981,22.60256583336077 L 114.34532834214525,22.601570910102406 L 114.34533634387671,22.60137692357387 L 114.34534134699301,22.6012239364131 L 114.34534234712953,22.60120093791435 L 114.34534933963108,22.601171929955463 L 114.34536132679692,22.601121916351104 L 114.34538330297522,22.60103489075626 L 114.34561907145613,22.59973466683235 L 114.34859563311994,22.592730582216618 L 114.34209341114067,22.591408920677562 L 114.33849153212378,22.59107443395979 L 114.33219778763879,22.59107409474213 L 114.32573951351053,22.5916602769095 L 114.32045256334321,22.591408414247915 L 114.31726744412884,22.590151639083338 L 114.31510579475191,22.588163977747325 L 114.31323968430583,22.586026746399863 L 114.3120245258878,22.584987140999186 L 114.3109151833266,22.584198295662834 L 114.30698992734524,22.581406811464152 L 114.30496786826447,22.578921724311815 L 114.30346607995571,22.575976707807996 L 114.30173053943986,22.573321021587432 L 114.30000287777187,22.571530175989256 L 114.29844087818417,22.57089688037419 L 114.29584505749301,22.570320224545327 L 114.29371058164492,22.569454733486328 L 114.29168790358835,22.568126016669208 L 114.28972607246585,22.566566135408028 L 114.28759125439518,22.56581633107539 L 114.2851605383182,22.565642764129823 L 114.28198423131623,22.565816973670184 L 114.27938920520936,22.565817214775233 L 114.27615236306585,22.565702987789038 L 114.27055425787003,22.56512577163596 L 114.25623334498115,22.56245279241287 L 114.25483611815596,22.562066383277084 L 114.2540119565921,22.561682711447137 L 114.24549773754464,22.55614672239472 L 114.23681044053701,22.548880020055755 L 114.233165872468,22.545798862648937 L 114.23064906796021,22.5440807429985 L 114.22772343824352,22.54290309518655 z" /></g></svg>