<svg xmlns="http://www.w3.org/2000/svg" xmlns:xlink="http://www.w3.org/1999/xlink" width="100.0" height="100.0" viewBox="121.27637216830212 31.1313896353987 0.546262314019387 0.1299268474538593" preserveAspectRatio="xMinYMin meet"><g transform="matrix(1,0,0,-1,0,62.39270611825126)"><g><polyline fill="none" stroke="#66cc99" stroke-width="0.010925246280387739" points="121.80240254476523,31.151621572954976 121.802128882379,31.15237155625493" opacity="0.8" /><polyline fill="none" stroke="#66cc99" stroke-width="0.010925246280387739" points="121.802128882379,31.15237155625493 121.80131670822135,31.154597353754042 121.80058740646032,31.156806248114563 121.79947373217937,31.159375873817083 121.7983595372616,31.16142877269239 121.79420766468508,31.168281622460835 121.79305773352638,31.169920888680497" opacity="0.8" /><polyline fill="none" stroke="#66cc99" stroke-width="0.010925246280387739" points="121.79305773352638,31.169920888680497 121.79252443359545,31.170681125982632 121.7921397201408,31.171227658629277" opacity="0.8" /><polyline fill="none" stroke="#66cc99" stroke-width="0.010925246280387739" points="121.7921397201408,31.171227658629277 121.79059855801984,31.17341706844248 121.78744987961018,31.178061116174078 121.78371163214383,31.183605312108373 121.7805226107775,31.187142308362606 121.77723495570714,31.190265742739374 121.77292108048186,31.19854988923687 121.77141480430618,31.20044577846908 121.76967386028534,31.201630194004437 121.76814943883176,31.20215079994051 121.76660360604397,31.202432678405263 121.7649104985668,31.20233321337262 121.76158782636212,31.202077093058644 121.7590225737354,31.201888333316678 121.75188941970097,31.201514193552534" opacity="0.8" /><polyline fill="none" stroke="#66cc99" stroke-width="0.010925246280387739" points="121.75188941970097,31.201514193552534 121.75122608802317,31.201479401263416 121.75029655078113,31.201396220088007" opacity="0.8" /><polyline fill="none" stroke="#66cc99" stroke-width="0.010925246280387739" points="121.75029655078113,31.201396220088007 121.74692543709168,31.201094550411483 121.7374442441419,31.199712120170002 121.7261998967545,31.19720273756941 121.7204489074531,31.195245947964114" opacity="0.8" /><polyline fill="none" stroke="#66cc99" stroke-width="0.010925246280387739" points="121.7204489074531,31.195245947964114 121.71938643056176,31.194884437339088 121.71895932488981,31.19473657193019" opacity="0.8" /><polyline fill="none" stroke="#66cc99" stroke-width="0.010925246280387739" points="121.71895932488981,31.19473657193019 121.71596398731648,31.193699576066724 121.7136977258718,31.193201713193872 121.70683719637479,31.191743471246557 121.70031670602764,31.190303166351576 121.69576902851155,31.189338436509903 121.69450091414755,31.188977079659168" opacity="0.8" /><polyline fill="none" stroke="#66cc99" stroke-width="0.010925246280387739" points="121.69450091414755,31.188977079659168 121.69373207022477,31.188757992937546 121.69296276162136,31.188540761324955" opacity="0.8" /><polyline fill="none" stroke="#66cc99" stroke-width="0.010925246280387739" points="121.69296276162136,31.188540761324955 121.69167848419491,31.188178116665675 121.68822873593744,31.187193672281236 121.68698627707232,31.186842128729353 121.68651178213534,31.186791715936366 121.68623147284549,31.186795401267517 121.6855639635165,31.186845919318582 121.68346931080373,31.187117752553608 121.68243104994855,31.187328602316867 121.68176780217672,31.187619191956323 121.68101491564508,31.188109785000066 121.68054944510546,31.188617996270242 121.6799033429739,31.189434299624615 121.6791143201515,31.19054488492898 121.67828811154762,31.192114272788494 121.6779285882376,31.192955011823365 121.67767684963624,31.193595926062727 121.67747978046053,31.194212964006184 121.67674845728594,31.197953223704985" opacity="0.8" /><polyline fill="none" stroke="#66cc99" stroke-width="0.010925246280387739" points="121.67674845728594,31.197953223704985 121.67671922119162,31.198102748004413 121.67668529249576,31.198311270919024 121.67658612760465,31.198913152194713 121.67648609117917,31.199529864083004" opacity="0.8" /><polyline fill="none" stroke="#66cc99" stroke-width="0.010925246280387739" points="121.67648609117917,31.199529864083004 121.67623568213386,31.201073604119937 121.67536350539675,31.2065077788518 121.67410114191836,31.21124375452483 121.67380986941514,31.212009198060077 121.67341451729921,31.21268952425276 121.67273246941917,31.213472531272394 121.67194140391123,31.21412437788949 121.67090886861777,31.21482611909208 121.67017181738957,31.21524741928445" opacity="0.8" /><polyline fill="none" stroke="#66cc99" stroke-width="0.010925246280387739" points="121.67017181738957,31.21524741928445 121.66963955817931,31.215551659884145 121.66878412215424,31.21604065921408" opacity="0.8" /><polyline fill="none" stroke="#66cc99" stroke-width="0.010925246280387739" points="121.66878412215424,31.21604065921408 121.66862131027342,31.216133728594244 121.66806132710134,31.216393007410975 121.6664970216473,31.21710123979794 121.66535531419387,31.21753196535127 121.66435650052802,31.21778360406689 121.66333168324302,31.21789722887235 121.66209865745738,31.217952330901152 121.6601288977333,31.21779329525304 121.65849105906945,31.217573057082262 121.65469699596451,31.216515571451982 121.6526512400244,31.216037601958437" opacity="0.8" /><polyline fill="none" stroke="#66cc99" stroke-width="0.010925246280387739" points="121.6526512400244,31.216037601958437 121.65188320734725,31.215858159150756 121.65151778270234,31.215772902227442" opacity="0.8" /><polyline fill="none" stroke="#66cc99" stroke-width="0.010925246280387739" points="121.65151778270234,31.215772902227442 121.64956873199831,31.215318170810942 121.63646272235374,31.21404587571887 121.61830596728734,31.21344174765356 121.61771188769451,31.21338785795892" opacity="0.8" /><polyline fill="none" stroke="#66cc99" stroke-width="0.010925246280387739" points="121.61771188769451,31.21338785795892 121.61636804298712,31.213265956143402 121.61618656789467,31.213244381147643" opacity="0.8" /><polyline fill="none" stroke="#66cc99" stroke-width="0.010925246280387739" points="121.61618656789467,31.213244381147643 121.6148949561556,31.21309082554164 121.61472450808998,31.213029795592025 121.61327147487077,31.212319132356356 121.61151501333647,31.211388189107605 121.60656975082063,31.20825777448129 121.60357665254901,31.20743874072901 121.59973875148303,31.206712723865685 121.59858562320028,31.206503750901735" opacity="0.8" /><polyline fill="none" stroke="#66cc99" stroke-width="0.010925246280387739" points="121.59858562320028,31.206503750901735 121.59779898999221,31.206361195146673 121.59701238576802,31.206218443998008" opacity="0.8" /><polyline fill="none" stroke="#66cc99" stroke-width="0.010925246280387739" points="121.59701238576802,31.206218443998008 121.5957363658418,31.205986874798928 121.58453207256592,31.204233055415354 121.58426439594564,31.20419009143189" opacity="0.8" /><polyline fill="none" stroke="#66cc99" stroke-width="0.010925246280387739" points="121.58426439594564,31.20419009143189 121.58336710765569,31.204046070339533 121.5827006979129,31.203931952609075" opacity="0.8" /><polyline fill="none" stroke="#66cc99" stroke-width="0.010925246280387739" points="121.5827006979129,31.203931952609075 121.58232942287725,31.203868374510314 121.57719029299652,31.203014352821814 121.57561833146683,31.20290602607157 121.57435718485111,31.203141115325025 121.56844025289577,31.20486798630532 121.56705766474732,31.205078220338066 121.5611758567835,31.20498880365791 121.55950529738867,31.204978953008172 121.55414293557457,31.205210204540887 121.55395267833238,31.20521713393113" opacity="0.8" /><polyline fill="none" stroke="#66cc99" stroke-width="0.010925246280387739" points="121.55395267833238,31.20521713393113 121.55315410718143,31.205246218822072 121.55235595160114,31.20528376284752" opacity="0.8" /><polyline fill="none" stroke="#66cc99" stroke-width="0.010925246280387739" points="121.55235595160114,31.20528376284752 121.55155208921069,31.205321575312645 121.55121956729747,31.20548962645567 121.55011039222249,31.20646961203016 121.54761701440403,31.20902795485698 121.54678013978592,31.210680315130425" opacity="0.8" /><polyline fill="none" stroke="#66cc99" stroke-width="0.010925246280387739" points="121.54678013978592,31.210680315130425 121.54671357250689,31.210811748352317 121.54648400799043,31.21177247488022 121.54638977988468,31.212217819632034" opacity="0.8" /><polyline fill="none" stroke="#66cc99" stroke-width="0.010925246280387739" points="121.54638977988468,31.212217819632034 121.54621952110158,31.213022503700508 121.54595234703905,31.213977113572543 121.54443508256686,31.217986051915023 121.54413927704289,31.218633146440705 121.54249160955537,31.21972731737815 121.54134298365427,31.220428069410126" opacity="0.8" /><polyline fill="none" stroke="#66cc99" stroke-width="0.010925246280387739" points="121.54134298365427,31.220428069410126 121.54000837656993,31.221242284573954" opacity="0.8" /><polyline fill="none" stroke="#66cc99" stroke-width="0.010925246280387739" points="121.54000837656993,31.221242284573954 121.53982009934,31.221357148474656 121.53774645498208,31.222634364051764 121.53493950684975,31.22439391707047 121.5338211630196,31.225052882023228 121.53347797734715,31.225261219578968 121.52811422621286,31.22817234897509 121.52327670244865,31.23063809564771" opacity="0.8" /><polyline fill="none" stroke="#66cc99" stroke-width="0.010925246280387739" points="121.52327670244865,31.23063809564771 121.52256449772648,31.231001115347365 121.52185525580849,31.23137039937017" opacity="0.8" /><polyline fill="none" stroke="#66cc99" stroke-width="0.010925246280387739" points="121.52185525580849,31.23137039937017 121.5214886357723,31.231561288992417 121.52082959131285,31.23193270944832 121.52046770341691,31.232121580085032 121.5169092909504,31.23344272372845 121.51621780142976,31.233702109469714 121.5117980557507,31.235141171389373" opacity="0.8" /><polyline fill="none" stroke="#66cc99" stroke-width="0.010925246280387739" points="121.5117980557507,31.235141171389373 121.51103796264,31.235388656455356 121.51027732920925,31.235634631427967" opacity="0.8" /><polyline fill="none" stroke="#66cc99" stroke-width="0.010925246280387739" points="121.51027732920925,31.235634631427967 121.50873409697294,31.23613368457461 121.50745135807229,31.236577949962697 121.49982377636255,31.239343022294694 121.49861295783765,31.239744014133326" opacity="0.8" /><polyline fill="none" stroke="#66cc99" stroke-width="0.010925246280387739" points="121.49861295783765,31.239744014133326 121.49778960061232,31.240016688791705 121.49715139502257,31.240224048364812" opacity="0.8" /><polyline fill="none" stroke="#66cc99" stroke-width="0.010925246280387739" points="121.49715139502257,31.240224048364812 121.49628283354275,31.240506252940524 121.49386256964031,31.240984707263646 121.49175873760066,31.241084545296285 121.48557600943977,31.240944730548623 121.48378036199506,31.240685301702623 121.47999941520534,31.239376705227517" opacity="0.8" /><polyline fill="none" stroke="#66cc99" stroke-width="0.010925246280387739" points="121.47999941520534,31.239376705227517 121.47924428412828,31.239115352206532 121.47849970945931,31.238824496001385" opacity="0.8" /><polyline fill="none" stroke="#66cc99" stroke-width="0.010925246280387739" points="121.47849970945931,31.238824496001385 121.4769882161561,31.238234055277836 121.47229051499271,31.236874243163324 121.47117956181951,31.236409607263752 121.47022578992036,31.235854070089136 121.46993390044277,31.235681125128426 121.46892044289326,31.235148814556844" opacity="0.8" /><polyline fill="none" stroke="#66cc99" stroke-width="0.010925246280387739" points="121.46892044289326,31.235148814556844 121.46821242833369,31.234776935502722 121.46749658319344,31.234421612820384" opacity="0.8" /><polyline fill="none" stroke="#66cc99" stroke-width="0.010925246280387739" points="121.46749658319344,31.234421612820384 121.46620664477234,31.233781328554887 121.46536147598644,31.233472538178937 121.46347051392668,31.23323194417805 121.45910420913486,31.232763202509414 121.45789486070436,31.232536508523637 121.45626382546484,31.23202434129801" opacity="0.8" /><polyline fill="none" stroke="#66cc99" stroke-width="0.010925246280387739" points="121.45626382546484,31.23202434129801 121.45574220192499,31.231860544419344 121.45473944976987,31.23154402552847" opacity="0.8" /><polyline fill="none" stroke="#66cc99" stroke-width="0.010925246280387739" points="121.45473944976987,31.23154402552847 121.45465617775534,31.23151774070271 121.45445379949055,31.23143284954572 121.44886350358169,31.22871538234287 121.44494765341508,31.226606185193674 121.44417729469633,31.226206744023383 121.4424075741674,31.22541163682726" opacity="0.8" /><polyline fill="none" stroke="#66cc99" stroke-width="0.010925246280387739" points="121.4424075741674,31.22541163682726 121.44167858157881,31.225084112088958 121.4413897082481,31.224958248469772 121.44096292082186,31.224728399560842" opacity="0.8" /><polyline fill="none" stroke="#66cc99" stroke-width="0.010925246280387739" points="121.44096292082186,31.224728399560842 121.43879815752865,31.223562553403145 121.43778324490675,31.223093302150062 121.43630278643882,31.222814240751305 121.43581885419876,31.222675887894923 121.43524726142596,31.222429788295212 121.43287651218489,31.221406801673766 121.43235583309004,31.22131249577769 121.43188617845901,31.22135715969857 121.43092051161564,31.221922962292936 121.43064712212099,31.221996962546225 121.42993028700695,31.222106581558084 121.42899888969178,31.221998935930326 121.42866456559435,31.22190612956528" opacity="0.8" /><polyline fill="none" stroke="#66cc99" stroke-width="0.010925246280387739" points="121.42866456559435,31.22190612956528 121.42789301639024,31.221691952131955 121.42712787598607,31.221473123617695" opacity="0.8" /><polyline fill="none" stroke="#66cc99" stroke-width="0.010925246280387739" points="121.42712787598607,31.221473123617695 121.4270138236078,31.221440504882164 121.42603155055387,31.22098650516606 121.42451889459916,31.220638222774948 121.42351899346205,31.22060884635414 121.41945841258834,31.220828007369853 121.41543553862041,31.22076091084216 121.41452048018795,31.22056542271951" opacity="0.8" /><polyline fill="none" stroke="#66cc99" stroke-width="0.010925246280387739" points="121.41452048018795,31.22056542271951 121.41333799086338,31.220312802110914 121.41295585707662,31.22023535609213" opacity="0.8" /><polyline fill="none" stroke="#66cc99" stroke-width="0.010925246280387739" points="121.41295585707662,31.22023535609213 121.41102918204639,31.219844882086026 121.41009341441053,31.219444428247026 121.40682467413387,31.21659062619323 121.40584519304925,31.215780034087093 121.40419383660944,31.214153350991225 121.40154239229022,31.212818625742113 121.40076488202662,31.212772108359513 121.40048963639158,31.212780223132143 121.40042126697593,31.212790276880618" opacity="0.8" /><polyline fill="none" stroke="#66cc99" stroke-width="0.010925246280387739" points="121.40042126697593,31.212790276880618 121.39963073146214,31.21290652542745 121.39884415660795,31.21304947457246" opacity="0.8" /><polyline fill="none" stroke="#66cc99" stroke-width="0.010925246280387739" points="121.39884415660795,31.21304947457246 121.39820468437966,31.21316568984149 121.39560303797437,31.213656669529737 121.39327187252934,31.21437614809657 121.39127076871421,31.21478533094323 121.38825780588334,31.215424565222175 121.38458746095249,31.216203423663213 121.38320870335208,31.21649907307654" opacity="0.8" /><polyline fill="none" stroke="#66cc99" stroke-width="0.010925246280387739" points="121.38320870335208,31.21649907307654 121.38242696981455,31.216666701571704 121.38164701601089,31.216841435162568" opacity="0.8" /><polyline fill="none" stroke="#66cc99" stroke-width="0.010925246280387739" points="121.38164701601089,31.216841435162568 121.38154655612195,31.21686394126107 121.38073585855646,31.217043394380735 121.3791658479475,31.21734346649911 121.37806602542065,31.217464734717524 121.37511506869971,31.217714009341023 121.3739548063784,31.21779403747234 121.37205795388347,31.217865572960978 121.37134016751392,31.217915777171243 121.37091449226223,31.21797520001702 121.37063862312432,31.218015931005496 121.3701829439429,31.218123023159627" opacity="0.8" /><polyline fill="none" stroke="#66cc99" stroke-width="0.010925246280387739" points="121.3701829439429,31.218123023159627 121.36940501710461,31.218305848849862 121.3686297374119,31.218499242537824" opacity="0.8" /><polyline fill="none" stroke="#66cc99" stroke-width="0.010925246280387739" points="121.3686297374119,31.218499242537824 121.36800067722366,31.218656161738593 121.36568822985362,31.219083684563557 121.3635214023192,31.219463258842808 121.3630020233095,31.219513017605486 121.35893955237218,31.21979255880307 121.35564101179568,31.219983567159584" opacity="0.8" /><polyline fill="none" stroke="#66cc99" stroke-width="0.010925246280387739" points="121.35564101179568,31.219983567159584 121.35462997950323,31.220042112935236 121.35404726068052,31.220089851245355" opacity="0.8" /><polyline fill="none" stroke="#66cc99" stroke-width="0.010925246280387739" points="121.35404726068052,31.220089851245355 121.3510663128858,31.22033406063886 121.34878198810905,31.220372653933847 121.34711330394754,31.220443973865798 121.34272299017593,31.220568418831565 121.3397876838898,31.220633725783884 121.33884118091709,31.220705712703303 121.33696774297276,31.220627164577678 121.33562023399533,31.220498654343206 121.33450471882105,31.220330531320595 121.33335244229139,31.220158439728195 121.33220120763303,31.219880621094564 121.33111981123139,31.219697407792378 121.3296191338692,31.219317063103173 121.32878027927418,31.218875657765004 121.32836901273491,31.2186098372426 121.32788664338302,31.218141938759498 121.32724496121246,31.2165461727871 121.32678167629054,31.214258296761034 121.32641110502436,31.209887435491094 121.3268959457968,31.207268111735946 121.32793512113145,31.204793216685065 121.33001300775886,31.200369833659302 121.33013918989009,31.199584533303767 121.32978260645785,31.198669248979908 121.3289982631919,31.197225316632952 121.3286116143627,31.196848072281686 121.32773706103255,31.19651729128135 121.32692301865072,31.19646167423653 121.32252594488799,31.196594039359184" opacity="0.8" /><polyline fill="none" stroke="#66cc99" stroke-width="0.010925246280387739" points="121.32252594488799,31.196594039359184 121.32247077645829,31.196595700094562 121.32172604372542,31.196596051241468 121.32111206105324,31.19656443963513 121.32092859705992,31.196544076923708" opacity="0.8" /><polyline fill="none" stroke="#66cc99" stroke-width="0.010925246280387739" points="121.32092859705992,31.196544076923708 121.32085378483657,31.196535773497583 121.3188785100898,31.19603566605707 121.31845828221226,31.195981312341242 121.3177785349459,31.195955215380508" opacity="0.8" /><polyline fill="none" stroke="#66cc99" stroke-width="0.010925246280387739" points="121.3177785349459,31.195955215380508 121.31698004097382,31.195924559478133 121.31618132089135,31.19589850615818" opacity="0.8" /><polyline fill="none" stroke="#66cc99" stroke-width="0.010925246280387739" points="121.31618132089135,31.19589850615818 121.31322617661512,31.195802112789554 121.3091430674756,31.19527920995132 121.30547096320142,31.19479298209299 121.30364661652872,31.19444857524843 121.30094266762997,31.193530179505412 121.29660410585839,31.191231915372928" opacity="0.8" /></g></g></svg>